<svg width="67" height="66" viewBox="0 0 67 66" fill="none" xmlns="http://www.w3.org/2000/svg">
<path d="M0.257812 41.6738C3.37559 41.4688 6.49312 41.3692 9.61144 41.3196C10.007 41.3133 10.4792 41.4757 10.7919 41.7193C12.0399 42.6916 13.3219 42.7791 14.7544 41.8644C13.8452 40.8446 12.8592 39.8925 12.0518 38.8074C7.80347 33.0978 7.17041 26.8863 9.61492 20.2849C9.73308 19.9658 9.83979 19.5846 10.0786 19.3808C10.508 19.0143 11.1569 18.4126 11.4935 18.5318C12.2087 18.7852 12.3612 19.4585 12.0806 20.3271C11.4044 22.4204 10.5792 24.5413 10.3966 26.7004C10.1312 29.8379 10.8311 32.9662 12.5943 35.6179C13.9074 37.5928 15.6215 39.3088 17.2196 41.0837C18.2118 42.1858 19.4137 41.2762 20.4814 41.1749C23.6535 40.8742 26.8198 40.0309 29.9697 40.113C33.0956 40.1946 36.3732 40.4593 39.1922 42.1988C40.9867 43.3061 41.7402 45.4095 41.1655 47.313C40.7343 48.7409 38.7629 50.1148 36.9146 50.0319C34.8341 49.9386 32.7628 49.6355 30.688 49.4187C30.4352 49.3923 30.1863 49.3308 29.9345 49.2928C29.1306 49.1715 28.436 49.5002 28.4757 50.2864C28.4987 50.7419 29.1318 51.4382 29.6047 51.5524C31.6265 52.0405 33.6788 52.4555 35.7434 52.6972C37.5396 52.9074 39.3793 52.9944 41.176 52.8468C42.046 52.7753 43.0185 52.2052 43.6748 51.5784C46.5318 48.8499 49.322 46.049 52.0726 43.2124C54.0653 41.1574 56.139 39.1421 57.8561 36.8671C61.248 32.3734 61.5569 27.3282 60.0052 22.0283C52.2023 24.9414 45.569 21.3067 43.3194 14.0105C41.7139 15.1079 40.1741 16.1157 38.6888 17.1982C38.1058 17.6231 37.664 18.2366 37.124 18.7268C36.0989 19.6572 35.2314 19.5958 34.2143 18.6727C32.0354 16.6953 29.8424 14.7865 26.9219 13.8606C22.4325 12.4372 18.4309 13.0887 14.8972 16.2345C14.2245 16.8333 13.4893 17.1644 12.9519 16.3632C12.7307 16.0334 13.0271 15.0339 13.4061 14.6749C16.4878 11.7564 20.1265 10.556 24.4078 11.0415C28.9529 11.5568 32.4797 13.845 35.5799 16.8737C37.1495 15.6651 38.5418 14.139 40.2708 13.3736C42.5613 12.3597 43.6923 10.994 43.6207 8.49153C43.6017 7.8268 43.9946 7.07664 44.3929 6.50019C44.6469 6.13267 45.2588 6.0125 45.7103 5.78142C45.9286 6.28728 46.3484 6.80605 46.317 7.29591C46.2723 7.99455 45.8521 8.66038 45.6698 9.3604C44.5899 13.5059 46.8736 18.2425 50.7864 20.0166C57.232 22.9392 64.4596 18.1643 64.1623 11.073C64.012 7.48709 62.1532 4.77247 58.9557 3.14215C55.931 1.59997 52.8848 1.70061 49.9619 3.54095C49.601 3.76813 49.249 4.11229 48.8604 4.16588C48.3894 4.23081 47.5587 4.1749 47.4638 3.93835C47.2883 3.50142 47.3355 2.63777 47.6395 2.4015C49.3431 1.07718 51.2556 0.17805 53.4728 0.0384756C56.37 -0.143899 59.0829 0.289256 61.5016 2.04648C63.4291 3.44686 64.7777 5.26436 65.6964 7.43541C65.7903 7.65742 65.9432 7.85448 66.1633 8.05022C66.2578 10.2771 66.2578 12.5169 66.1633 14.8645C65.0377 16.9803 63.9687 18.9519 62.2462 20.4961C62.0236 20.6957 62.076 21.3541 62.1862 21.7481C62.8895 24.2632 63.2431 26.7544 62.9734 29.4182C62.4967 34.1252 60.4115 37.9314 57.1795 41.2156C54.3781 44.0622 51.5254 46.8583 48.7184 49.6995C48.211 50.2131 47.8148 50.8366 47.3673 51.4094C49.6275 51.2516 51.6912 50.7833 53.7711 50.4042C55.5157 50.0862 57.1328 50.4713 58.3127 51.8512C59.3621 53.0784 59.4232 54.9849 58.1935 56.4859C57.4098 57.4425 56.1644 58.2084 54.9742 58.6127C49.2492 60.5572 43.4664 62.3311 37.7168 64.2044C35.1463 65.0419 32.4804 65.4558 29.8891 64.8376C24.1413 63.4662 18.4507 61.8507 12.7556 60.2672C11.8964 60.0283 11.2978 59.8272 10.7449 60.7644C10.5802 61.0436 9.91539 61.1232 9.47726 61.1297C7.15865 61.1643 4.83898 61.167 2.52031 61.1348C1.76515 61.1242 1.01192 60.9748 0.257812 60.8889C0.257812 54.5241 0.257812 48.1594 0.257812 41.6738ZM46.0556 54.1975C43.0558 54.6772 40.1458 55.8719 37.0065 55.2228C34.3014 54.6634 31.5708 54.226 28.8683 53.6546C26.9166 53.242 26.0163 51.7726 26.3133 49.7237C26.5653 47.9852 27.8244 47.0508 29.8299 47.225C31.9481 47.409 34.0609 47.661 36.1724 47.914C37.2639 48.0448 38.5764 47.4435 38.9906 46.5682C39.529 45.4303 38.8068 44.6423 38.0267 44.2073C36.9861 43.627 35.7837 43.2798 34.6104 43.0058C31.5809 42.2983 28.5436 41.8829 25.4127 42.5554C22.7545 43.1264 20.0429 43.4457 17.3599 43.9051C15.3672 44.2463 13.3825 44.6334 11.3484 45.0085C11.3484 49.0406 11.3229 52.9034 11.3908 56.7647C11.3971 57.1215 11.9385 57.6767 12.331 57.7877C18.1054 59.4211 23.8814 61.0545 29.695 62.5393C31.0977 62.8976 32.7171 63.0491 34.0994 62.7195C37.5688 61.8922 40.97 60.7683 44.3791 59.7014C47.9147 58.5949 51.4397 57.4514 54.9425 56.2462C55.9764 55.8905 56.8641 55.1868 56.6908 53.8894C56.5075 52.5162 55.3973 52.5022 54.423 52.6627C51.6978 53.1114 48.9907 53.6694 46.0556 54.1975ZM9.02188 57.8616C9.0219 53.4393 8.9988 49.0168 9.04031 44.5949C9.04922 43.6461 8.77016 43.2961 7.79983 43.3408C6.30025 43.4098 4.79476 43.3829 3.29272 43.3515C2.5741 43.3365 2.31154 43.6125 2.31448 44.33C2.33332 48.924 2.33333 53.5181 2.31448 58.112C2.31154 58.8296 2.5744 59.1046 3.29283 59.0904C4.88079 59.0591 6.47024 59.0584 8.05817 59.0904C8.78438 59.105 9.08921 58.8137 9.02188 57.8616Z" fill="#2B2D2F"/>
<path d="M36.7922 24.8567C38.4167 27.758 39.9738 30.5906 41.6416 33.6243C42.5102 32.241 43.2095 31.0332 44.0151 29.901C44.2618 29.5542 44.7954 29.2224 45.2057 29.2122C47.7377 29.1498 50.272 29.1854 52.8055 29.1793C53.6229 29.1773 54.1222 29.5037 54.1256 30.3789C54.1291 31.282 53.4777 31.2384 52.8625 31.2388C50.8872 31.2401 48.91 31.2904 46.9374 31.2184C46.038 31.1856 45.5286 31.5181 45.1098 32.2664C44.3819 33.5669 43.5883 34.831 42.8108 36.1033C42.0514 37.3459 41.1855 37.3442 40.4627 36.0683C39.1171 33.6929 37.8041 31.2992 36.4754 28.9142C36.2937 28.5881 36.1002 28.2685 35.7786 27.7169C34.7854 29.4428 33.8902 31.0033 32.989 32.5604C32.7767 32.9272 32.5633 33.2959 32.3172 33.6401C31.5979 34.6461 30.6729 34.6073 30.0431 33.5772C29.4696 32.6392 28.8695 31.7175 28.162 30.6005C27.6028 31.4384 27.1777 32.1997 26.6247 32.8525C26.3408 33.1877 25.8351 33.5118 25.4182 33.527C23.4885 33.5974 21.5516 33.6155 19.6246 33.5139C19.1841 33.4907 18.7725 32.9188 18.3477 32.5994C18.7896 32.2338 19.2024 31.6062 19.6792 31.5529C20.9942 31.4062 22.3397 31.438 23.6659 31.519C24.6191 31.5771 25.1536 31.2023 25.5685 30.3889C25.9936 29.5554 26.5089 28.7633 27.0348 27.9869C27.6317 27.1056 28.5548 27.1073 29.1729 27.9959C29.8432 28.9596 30.4581 29.962 31.2124 31.1252C32.4083 29.0274 33.4991 27.1157 34.5881 25.203C35.1839 24.1567 35.7076 24.0539 36.7922 24.8567Z" fill="#2B2D2F"/>
<path d="M56.0074 13.0536C55.9626 13.8526 56.0925 14.5863 55.8852 15.2075C55.7399 15.6427 55.1607 16.1487 54.7255 16.1999C54.4041 16.2377 53.7997 15.6514 53.6807 15.2395C53.4626 14.4842 53.7975 13.3637 53.3658 12.9333C52.9331 12.5021 51.8135 12.839 51.0579 12.621C50.6471 12.5026 50.0632 11.8933 50.1025 11.5721C50.1557 11.1373 50.6641 10.5568 51.0996 10.4152C51.841 10.1743 52.9763 10.5117 53.3916 10.0767C53.8192 9.62886 53.4595 8.51107 53.6839 7.75782C53.827 7.27743 54.4058 6.92685 54.7893 6.51807C55.1691 6.91757 55.7426 7.25848 55.8852 7.72975C56.1238 8.51831 55.8023 9.64644 56.2538 10.1485C56.6387 10.5765 57.8165 10.1985 58.5722 10.4202C59.0394 10.5572 59.373 11.1493 59.7666 11.537C59.3546 11.9134 59.0001 12.4727 58.5175 12.6244C57.7352 12.8703 56.8688 12.8488 56.0074 13.0536Z" fill="#2B2D2F"/>
</svg>
