<svg width="66" height="66" viewBox="0 0 66 66" fill="none" xmlns="http://www.w3.org/2000/svg">
<g clip-path="url(#clip0_0_260)">
<path d="M36.2311 0.257812C36.4907 0.429071 36.594 0.677987 36.7736 0.760107C40.2549 2.35222 42.2383 4.99719 42.5584 8.85177C42.5837 9.1568 42.7259 9.55106 42.9517 9.72563C46.1891 12.2293 47.9458 15.5914 48.6509 19.5457C48.7996 20.3798 48.7129 21.2567 48.7258 22.114C48.7469 23.5105 48.7679 24.8206 49.4807 26.1812C50.7473 28.5992 48.9927 30.9285 45.9256 31.28C45.392 32.8167 44.9449 34.3657 44.3196 35.8392C43.5169 37.7308 42.1749 39.2449 40.4345 40.3253C39.6619 40.8048 39.352 41.3499 39.442 42.2049C39.4688 42.4597 39.4569 42.7203 39.444 42.9772C39.3168 45.5049 39.6043 45.9748 42.2891 47.1644C45.3929 48.5397 48.5428 49.8297 51.5561 51.3829C53.0519 52.1538 53.8042 53.7816 53.8481 55.4605C53.9402 58.9777 53.8534 62.4995 53.8616 66.1386C53.272 66.2578 52.6609 66.2578 51.9501 66.1377C51.8406 63.2274 51.7054 60.4303 51.8563 57.6487C52.005 54.9086 50.9029 53.157 48.4046 52.1637C46.8494 51.5455 45.3155 50.8736 43.6317 50.1668C43.6317 53.0005 43.6317 55.5652 43.6317 58.1044C46.4309 59.2733 47.4657 61.6938 46.2026 64.2509C45.8323 65.0005 45.1443 65.5932 44.6019 66.2578C43.3072 66.2578 42.0124 66.2578 40.6203 66.1676C40.1011 65.6687 39.6162 65.3074 39.2678 64.8436C37.4611 62.4383 38.4025 59.5019 41.4021 58.0719C41.4021 55.7405 41.4021 53.4143 41.4021 50.8893C39.1814 52.3509 37.1216 53.6959 35.0735 55.0585C33.8334 55.8835 32.6363 55.88 31.3971 55.0329C29.6748 53.8557 27.924 52.72 26.1797 51.5752C25.8581 51.3642 25.5094 51.1944 25.0082 50.9129C25.0082 51.7852 25.0083 52.3831 25.0082 52.981C25.0079 55.9218 25.0079 55.9218 27.9796 55.9457C29.9989 55.962 31.2196 57.1048 31.1804 59.0991C31.1323 61.5441 31.7653 64.1289 29.9066 66.2578C29.04 66.2578 28.1735 66.2578 27.2162 66.1535C27.3348 65.4549 27.4456 64.4159 27.7706 64.3439C29.1332 64.0423 29.1367 63.1226 29.1333 62.1054C29.1307 61.3321 29.098 60.557 29.1398 59.786C29.2068 58.5479 28.4697 58.0558 27.4172 58.031C25.0558 57.9751 22.6922 58.0091 20.3294 58.0142C19.4126 58.0162 18.8621 58.4671 18.8368 59.402C18.8043 60.604 18.7717 61.8116 18.8599 63.0079C18.8887 63.3989 19.2609 64.0576 19.5339 64.0888C20.9836 64.2547 20.8985 65.2527 20.8832 66.2578C20.0166 66.2578 19.15 66.2578 18.189 66.1669C16.8194 64.9447 16.62 63.4852 16.7441 61.8867C16.8203 60.9066 16.7517 59.9157 16.7602 58.9297C16.7752 57.1902 17.9588 55.9992 19.7316 55.9502C20.5456 55.9278 21.364 55.9805 22.173 55.9121C22.4331 55.8901 22.8785 55.5964 22.8844 55.4155C22.9394 53.7323 22.9169 52.0466 22.9169 50.1293C21.0997 50.9081 19.5591 51.6006 17.9938 52.2318C15.5972 53.1983 14.5391 54.891 14.664 57.5171C14.8022 60.4246 14.6956 63.3437 14.6957 66.2578C14.0845 66.2578 13.4734 66.2578 12.7477 66.2578C12.6332 62.9531 12.7191 59.6454 12.6047 56.3447C12.5209 53.923 14.102 51.309 16.842 50.2559C19.6591 49.1732 22.3914 47.8714 25.1775 46.7055C26.5338 46.138 27.2081 45.2106 27.0769 43.7194C27.0357 43.2506 27.0249 42.7698 27.0802 42.304C27.182 41.4454 26.8619 40.8988 26.1329 40.4085C22.9189 38.2468 21.3906 35.0454 20.7824 31.362C20.0577 31.191 19.3644 31.1221 18.7505 30.8641C17.1598 30.1955 16.3704 28.3864 16.7934 26.5701C17.1483 25.0462 18.5135 24.0029 20.1889 23.9778C20.6612 23.9707 21.1921 24.1055 21.5911 23.9327C22.0886 23.7173 22.8178 23.2829 22.8549 22.8876C23.0263 21.0611 24.2303 20.8169 25.688 20.5771C30.8699 19.7248 35.7267 17.9399 40.2166 15.2C40.9427 14.757 41.7842 14.2409 42.3659 15.0661C42.9982 15.963 42.2944 16.6265 41.4504 17.0483C41.3005 17.1232 41.1546 17.206 40.9272 17.3278C42.801 18.6369 43.6587 20.211 43.5958 22.3244C43.5503 23.8525 44.4027 24.2407 46.5826 23.7858C46.9609 20.2747 46.2017 16.9911 44.1177 14.1437C41.3482 10.3598 37.5097 8.35187 32.7974 8.54209C26.3344 8.80297 21.0972 13.4374 20.0728 19.7821C19.94 20.6049 20.2323 21.9785 18.6573 21.8654C17.8513 21.8075 17.5597 20.6829 17.8582 19.2216C18.6288 15.4477 20.4926 12.3212 23.3574 9.76266C23.6376 9.51245 23.919 9.11153 23.9505 8.75836C24.2891 4.95466 26.2707 2.36246 29.6893 0.788077C29.8706 0.704581 30.0245 0.561622 30.1778 0.352078C32.1464 0.257812 34.1283 0.257812 36.2311 0.257812ZM43.3021 32.2839C43.3927 31.653 43.5336 31.0244 43.5618 30.3907C43.6018 29.4916 43.9685 29.037 44.9117 29.1281C45.2514 29.1608 45.6844 29.255 45.9243 29.0952C46.5525 28.677 47.4811 28.2058 47.5897 27.6248C47.7704 26.6583 46.8029 26.2303 45.9184 26.0637C45.5031 25.9855 45.0607 26.0641 44.6336 26.0318C44.2568 26.0034 43.8637 25.9765 43.5133 25.8504C42.0179 25.3126 41.5063 24.1726 41.4936 22.6458C41.4706 19.904 39.3703 18.3347 37.0677 19.3896C33.5177 21.0159 29.8291 22.1106 25.9817 22.7387C25.609 22.7995 25.1581 23.2894 25.0151 23.6796C24.5678 24.9 23.8352 25.7657 22.5365 26.0029C21.9538 26.1093 21.3379 26.0443 20.7371 26.039C19.7016 26.0298 18.777 26.487 18.9308 27.5164C19.0212 28.1209 20.0319 29.0556 20.598 29.0341C22.3495 28.9675 23.1824 29.4971 23.0301 31.3123C23.0064 31.595 23.1561 31.8895 23.2067 32.1818C24.1952 37.8912 30.4236 41.6848 35.9835 40.0208C39.8439 38.8655 42.1468 36.2666 43.3021 32.2839ZM37.0379 51.0796C38.1106 50.3631 39.1833 49.6465 40.489 48.7743C36.9137 47.5791 37.4075 44.6665 37.3392 42.3105C34.5012 42.3105 31.8935 42.3105 29.1543 42.3105C29.1908 44.7972 29.5235 47.6117 26.0499 48.802C27.4269 49.7207 28.5497 50.4896 29.692 51.2283C34.0542 54.0493 32.4365 54.0827 37.0379 51.0796ZM38.4151 4.5141C36.2621 2.57671 33.8151 1.73523 30.9826 2.70419C28.4315 3.57692 26.7583 5.54267 26.5321 7.78244C31.0423 5.84472 35.5569 5.98224 40.2877 7.54591C39.7075 6.57957 39.1274 5.61322 38.4151 4.5141ZM43.0185 64.0792C43.1698 64.001 43.3935 63.9618 43.4603 63.838C43.8335 63.1469 44.4784 62.4166 44.4373 61.7355C44.3877 60.9138 43.6787 60.3042 42.6187 60.3057C41.5496 60.3071 40.945 60.734 40.6562 61.7387C40.3094 62.9448 41.2636 64.0194 43.0185 64.0792Z" fill="#2B2D2F"/>
<path d="M0.257812 48.5895C2.09989 47.6735 3.9448 46.8849 5.78276 46.0804C6.62369 45.7124 6.79942 43.7027 6.00429 43.104C4.07009 41.6476 3.23796 39.7281 3.34012 37.3291C3.40218 35.8718 3.34254 34.4097 3.35426 32.95C3.37172 30.7757 4.85655 29.1931 7.01666 29.1468C9.37714 29.0963 11.7399 29.1084 14.1009 29.1441C15.7699 29.1693 17.5168 30.5711 17.6727 32.4073C17.8594 34.6061 17.7132 36.8452 17.5604 39.0565C17.4527 40.615 16.4848 41.7974 15.3634 42.8301C14.1802 43.9197 14.4617 45.5353 15.8545 46.2799C16.2656 46.4997 16.6088 47.1402 16.6573 47.6209C16.6817 47.8615 15.8553 48.4937 15.6158 48.4047C14.2964 47.9144 13.6143 48.9193 12.8048 49.4992C11.0424 50.7617 10.6527 50.8629 8.62049 50.0112C8.62049 50.9114 8.62049 51.7701 8.62049 52.7521C9.02976 52.7897 9.44423 52.805 9.85102 52.8691C11.3984 53.1129 11.9467 54.497 11.591 57.23C11.4428 58.3685 10.5919 59.135 9.51027 59.0138C9.18036 58.9768 8.65952 58.7532 8.60917 58.529C8.52064 58.1348 8.66335 57.6486 8.82471 57.2475C9.09163 56.5839 9.45026 55.9572 9.91002 55.0344C8.18339 55.0344 6.92331 55.0344 5.35357 55.0344C5.48968 55.713 5.41821 56.5339 5.79424 56.9578C6.36999 57.6068 6.78937 58.3264 6.05387 58.7613C5.5297 59.0712 4.44151 58.8834 3.85093 58.5191C2.94556 57.9606 3.10561 53.9903 4.01426 53.4113C4.66213 52.9984 5.48786 52.8647 6.35376 52.565C6.37399 52.3717 6.43502 52.0393 6.43883 51.7063C6.45149 50.5974 6.44362 49.4883 6.44362 48.2083C5.19298 48.6057 4.06705 48.8623 3.04557 49.3415C2.67592 49.5149 2.37017 50.2153 2.35454 50.6858C2.28189 52.8732 2.32668 55.0644 2.31863 57.2542C2.31222 58.998 2.22014 59.0779 0.366564 59.0132C0.257813 55.5961 0.257813 52.1532 0.257812 48.5895ZM11.7036 42.3005C14.1879 41.686 15.2754 39.9304 15.611 37.7334C13.7435 37.0609 11.831 36.6383 10.2076 35.7102C8.68653 34.8406 7.60409 34.8895 6.51897 36.1488C6.10841 36.6253 5.48236 37.1686 5.46994 37.6936C5.40192 40.5685 8.67692 43.036 11.7036 42.3005ZM10.1876 31.1952C9.33177 31.1973 8.4733 31.1576 7.6206 31.2106C6.14269 31.3026 5.38881 32.2576 5.53337 33.775C5.6147 33.7788 5.69985 33.7996 5.7765 33.7825C5.89884 33.7551 6.05324 33.7374 6.12907 33.6554C7.67119 31.9888 9.14568 32.3264 10.8277 33.566C12.1892 34.5694 13.8191 35.1269 15.5786 35.0485C16.0328 32.2851 15.1448 31.1979 12.4969 31.1954C11.8122 31.1947 11.1275 31.1953 10.1876 31.1952ZM11.3467 44.6015C10.4258 44.6015 9.50478 44.6015 8.66039 44.6015C8.17962 46.1774 8.61296 47.2715 9.93619 47.9094C10.2779 48.0742 10.8471 48.0544 11.1892 47.8795C12.4642 47.2276 13.0127 46.1893 12.4868 44.6669C12.2194 44.6479 11.8918 44.6247 11.3467 44.6015Z" fill="#2B2D2F"/>
<path d="M66.2575 58.9184C64.1994 59.035 64.1979 59.035 64.1951 56.9632C64.1928 55.2459 64.1947 53.5287 64.1945 51.8114C64.1941 49.3461 63.8355 48.9729 61.1099 48.7329C61.1099 49.9765 61.0608 51.2133 61.1433 52.4413C61.1648 52.7612 61.5419 53.1338 61.8498 53.3449C63.2387 54.2972 63.6934 56.4326 62.744 57.7554C61.7845 59.0924 59.5429 59.5296 58.2707 58.6279C56.8343 57.6099 56.3416 55.259 57.6968 54.1441C59.4335 52.7155 59.0001 51.0446 58.9881 49.0918C58.4777 49.4214 58.0887 49.6401 57.7357 49.9066C56.5999 50.7637 55.527 50.7977 54.3422 49.9606C53.784 49.5662 53.2873 49.0703 52.6947 48.7438C52.2951 48.5236 51.7704 48.4151 51.3127 48.4424C50.5919 48.4852 49.8912 48.3995 49.8446 47.6194C49.818 47.1757 50.2375 46.4925 50.6468 46.2739C52.1133 45.4907 52.1652 43.9996 51.0926 42.7464C50.084 41.568 49.1866 40.087 48.8449 38.6002C48.4608 36.9285 48.5692 35.0771 48.7957 33.3473C49.1358 30.7498 51.6628 28.9591 53.8196 29.1132C55.2718 29.217 56.7375 29.1282 58.1971 29.1341C61.0778 29.1458 63.1583 31.2439 63.1612 34.1501C63.1628 35.738 63.26 37.3385 63.0951 38.9104C62.9252 40.5302 62.0105 41.8478 60.8176 42.9526C59.4547 44.2149 59.7712 45.7855 61.5259 46.3507C63.1422 46.8715 64.8258 47.2354 66.1673 48.493C66.2575 51.9118 66.2575 55.3546 66.2575 58.9184ZM51.5506 32.3823C50.5553 33.8804 50.7288 35.5803 50.8153 37.2236C50.9685 40.1341 53.0095 42.2663 55.7366 42.53C57.8932 42.7385 60.3848 40.9214 60.906 38.4148C61.2214 36.8976 61.1838 35.2502 60.9853 33.7022C60.845 32.6073 60.0658 31.6079 58.8072 31.4585C57.3324 31.2834 55.8271 31.1366 54.3555 31.2482C53.4454 31.3172 52.5736 31.8902 51.5506 32.3823ZM55.5359 47.9817C57.3825 48.0192 58.5878 46.7277 57.8216 44.6394C56.569 44.6394 55.303 44.6394 54.045 44.6394C53.6845 46.5401 53.6845 46.5401 55.5359 47.9817ZM60.3934 56.9224C60.5767 56.5129 60.8756 56.1084 60.8938 55.6917C60.9025 55.49 60.3667 55.0765 60.1095 55.1006C59.8104 55.1287 59.4149 55.4781 59.2926 55.7813C58.9645 56.5954 59.6209 56.7715 60.3934 56.9224Z" fill="#2B2D2F"/>
<path d="M29.2323 32.6118C29.9034 32.5325 30.6379 32.3392 31.1295 32.6014C32.5804 33.3752 33.8989 33.3728 35.3613 32.6237C35.8705 32.363 36.9977 32.3469 37.2072 32.6533C37.722 33.4066 37.3192 34.1363 36.4352 34.5774C34.396 35.5948 32.3442 35.5892 30.2917 34.7049C29.4639 34.3482 28.8652 33.7524 29.2323 32.6118Z" fill="#2B2D2F"/>
<path d="M39.4434 28.0329C39.5018 28.8798 39.0755 29.2455 38.4448 29.0769C38.0453 28.9701 37.5401 28.5435 37.4384 28.1647C37.0451 26.6995 37.5892 25.8633 38.6777 26.0599C39.8845 26.278 39.2918 27.2569 39.4434 28.0329Z" fill="#2B2D2F"/>
<path d="M29.1281 27.1219C29.1219 27.5739 29.2466 28.0256 29.0755 28.2318C28.7674 28.6029 28.307 28.9687 27.8594 29.0473C27.6609 29.0822 27.2076 28.4462 27.1063 28.0537C26.984 27.5802 26.9916 26.9905 27.178 26.5508C27.2906 26.2854 27.9155 26.0075 28.192 26.0977C28.563 26.2187 28.8198 26.69 29.1281 27.1219Z" fill="#2B2D2F"/>
</g>
<defs>
<clipPath id="clip0_0_260">
<rect width="66" height="66" fill="white"/>
</clipPath>
</defs>
</svg>
