<svg width="151" height="66" viewBox="0 0 151 66" fill="none" xmlns="http://www.w3.org/2000/svg">
<path d="M47.2383 50.8398L45.793 54.3164C45.4414 54.4727 45.0378 54.6159 44.582 54.7461C44.1263 54.8763 43.651 54.987 43.1562 55.0781C42.6745 55.1693 42.1862 55.2344 41.6914 55.2734C41.1966 55.3255 40.7279 55.3516 40.2852 55.3516C38.7096 55.3516 37.2513 55.1237 35.9102 54.668C34.582 54.1992 33.4297 53.5221 32.4531 52.6367C31.4896 51.7513 30.7344 50.6641 30.1875 49.375C29.6406 48.0859 29.3672 46.6146 29.3672 44.9609C29.3672 43.4896 29.6471 42.1289 30.207 40.8789C30.7799 39.6159 31.5677 38.5221 32.5703 37.5977C33.5859 36.6732 34.7773 35.9505 36.1445 35.4297C37.5117 34.9089 38.9961 34.6484 40.5977 34.6484C41.3268 34.6484 42.1081 34.7135 42.9414 34.8438C43.7747 34.9609 44.5169 35.1172 45.168 35.3125L46.5547 38.6328L46.3203 38.7695C45.9948 38.3659 45.6042 38.0013 45.1484 37.6758C44.7057 37.3372 44.2109 37.0508 43.6641 36.8164C43.1302 36.582 42.5638 36.3997 41.9648 36.2695C41.3659 36.1393 40.7539 36.0742 40.1289 36.0742C39.1133 36.0742 38.1888 36.2565 37.3555 36.6211C36.5221 36.9727 35.806 37.487 35.207 38.1641C34.6081 38.8411 34.1393 39.6745 33.8008 40.6641C33.4753 41.6406 33.3125 42.7539 33.3125 44.0039C33.3125 45.4102 33.4688 46.7188 33.7812 47.9297C34.1068 49.1406 34.582 50.1953 35.207 51.0938C35.8451 51.9792 36.6393 52.6758 37.5898 53.1836C38.5534 53.6784 39.6797 53.9258 40.9688 53.9258C41.5677 53.9258 42.1602 53.8542 42.7461 53.7109C43.3451 53.5547 43.9049 53.3398 44.4258 53.0664C44.9596 52.7799 45.4479 52.4414 45.8906 52.0508C46.3333 51.6602 46.7044 51.2174 47.0039 50.7227L47.2383 50.8398ZM61.4406 41.8359C61.4406 40.1172 61.0956 38.8542 60.4055 38.0469C59.7154 37.2396 58.7909 36.8359 57.632 36.8359C57.2023 36.8359 56.7206 36.9271 56.1867 37.1094C55.6659 37.2786 55.1255 37.513 54.5656 37.8125C54.0187 38.112 53.4719 38.4635 52.925 38.8672C52.3781 39.2578 51.8703 39.6745 51.4016 40.1172V47.3633C51.4016 48.4701 51.4146 49.4401 51.4406 50.2734C51.4667 51.0938 51.5057 51.8034 51.5578 52.4023C51.6099 53.0013 51.6685 53.5026 51.7336 53.9062C51.7987 54.3099 51.8703 54.6484 51.9484 54.9219V55H47.4367V54.9219C47.5148 54.6484 47.5865 54.3099 47.6516 53.9062C47.7297 53.5026 47.7883 53.0013 47.8273 52.4023C47.8794 51.8034 47.9185 51.0938 47.9445 50.2734C47.9836 49.4401 48.0031 48.4701 48.0031 47.3633V33.4375C48.0031 32.3307 47.9836 31.3672 47.9445 30.5469C47.9185 29.7135 47.8794 28.9974 47.8273 28.3984C47.7883 27.7995 47.7297 27.2982 47.6516 26.8945C47.5865 26.4909 47.5148 26.1523 47.4367 25.8789V25.8008H51.9484V25.8789C51.8703 26.1523 51.7987 26.4909 51.7336 26.8945C51.6685 27.2982 51.6099 27.7995 51.5578 28.3984C51.5057 28.9974 51.4667 29.7135 51.4406 30.5469C51.4146 31.3672 51.4016 32.3307 51.4016 33.4375V38.4375C51.9224 37.9688 52.4953 37.5065 53.1203 37.0508C53.7583 36.5951 54.4159 36.1849 55.093 35.8203C55.7701 35.4557 56.4602 35.1628 57.1633 34.9414C57.8664 34.7201 58.5565 34.6094 59.2336 34.6094C60.2492 34.6094 61.1086 34.7852 61.8117 35.1367C62.5279 35.4883 63.1073 35.9505 63.55 36.5234C64.0057 37.0964 64.3312 37.7539 64.5266 38.4961C64.7349 39.2253 64.8391 39.9674 64.8391 40.7227V47.3633C64.8391 48.4701 64.8521 49.4401 64.8781 50.2734C64.9042 51.0938 64.9432 51.8034 64.9953 52.4023C65.0474 53.0013 65.106 53.5026 65.1711 53.9062C65.2362 54.3099 65.3078 54.6484 65.3859 54.9219V55H60.8742V54.9219C60.9523 54.6484 61.024 54.3099 61.0891 53.9062C61.1672 53.5026 61.2258 53.0013 61.2648 52.4023C61.3169 51.8034 61.356 51.0938 61.382 50.2734C61.4211 49.4401 61.4406 48.4701 61.4406 47.3633V41.8359ZM67.6547 42.6367C67.6547 41.5299 67.6352 40.5664 67.5961 39.7461C67.5701 38.9128 67.531 38.1966 67.4789 37.5977C67.4398 36.9987 67.3812 36.4974 67.3031 36.0938C67.238 35.6901 67.1664 35.3516 67.0883 35.0781V35H71.6V35.0781C71.5219 35.3516 71.4503 35.6901 71.3852 36.0938C71.3201 36.4974 71.2615 36.9987 71.2094 37.5977C71.1573 38.1966 71.1182 38.9128 71.0922 39.7461C71.0661 40.5664 71.0531 41.5299 71.0531 42.6367V47.3633C71.0531 48.4701 71.0661 49.4401 71.0922 50.2734C71.1182 51.0938 71.1573 51.8034 71.2094 52.4023C71.2615 53.0013 71.3201 53.5026 71.3852 53.9062C71.4503 54.3099 71.5219 54.6484 71.6 54.9219V55H67.0883V54.9219C67.1664 54.6484 67.238 54.3099 67.3031 53.9062C67.3812 53.5026 67.4398 53.0013 67.4789 52.4023C67.531 51.8034 67.5701 51.0938 67.5961 50.2734C67.6352 49.4401 67.6547 48.4701 67.6547 47.3633V42.6367ZM67.2445 29.082C67.2445 28.7956 67.2966 28.5286 67.4008 28.2812C67.518 28.0208 67.6677 27.7995 67.85 27.6172C68.0323 27.4219 68.2471 27.2721 68.4945 27.168C68.7549 27.0508 69.0349 26.9922 69.3344 26.9922C69.6339 26.9922 69.9073 27.0508 70.1547 27.168C70.4151 27.2721 70.6365 27.4219 70.8187 27.6172C71.0141 27.7995 71.1638 28.0208 71.268 28.2812C71.3852 28.5286 71.4437 28.7956 71.4437 29.082C71.4437 29.681 71.2419 30.1823 70.8383 30.5859C70.4346 30.9896 69.9333 31.1914 69.3344 31.1914C69.0349 31.1914 68.7549 31.1393 68.4945 31.0352C68.2471 30.918 68.0323 30.7682 67.85 30.5859C67.6677 30.3906 67.518 30.1693 67.4008 29.9219C67.2966 29.6615 67.2445 29.3815 67.2445 29.082ZM73.9859 42.6367C73.9859 41.5299 73.9664 40.5664 73.9273 39.7461C73.9013 38.9128 73.8622 38.1966 73.8102 37.5977C73.7711 36.9987 73.7125 36.4974 73.6344 36.0938C73.5693 35.6901 73.4977 35.3516 73.4195 35.0781V35H77.9313V35.0781C77.8271 35.3776 77.7359 35.7422 77.6578 36.1719C77.5927 36.6016 77.5406 37.1549 77.5016 37.832C77.9833 37.4284 78.4846 37.0312 79.0055 36.6406C79.5263 36.25 80.0602 35.9049 80.607 35.6055C81.1539 35.306 81.7073 35.0651 82.2672 34.8828C82.8401 34.7005 83.413 34.6094 83.9859 34.6094C84.3375 34.6094 84.6435 34.6289 84.9039 34.668C85.1643 34.694 85.3987 34.7396 85.607 34.8047C85.8154 34.8568 86.0042 34.9219 86.1734 35C86.3427 35.0651 86.5055 35.1302 86.6617 35.1953L85.7047 38.9258L85.3727 38.8477C85.2164 38.2747 84.9234 37.819 84.4938 37.4805C84.0641 37.1289 83.4781 36.9531 82.7359 36.9531C82.3323 36.9531 81.9091 37.0247 81.4664 37.168C81.0237 37.3112 80.5745 37.513 80.1188 37.7734C79.663 38.0208 79.2073 38.3138 78.7516 38.6523C78.2958 38.9779 77.8531 39.3229 77.4234 39.6875C77.3974 40.0651 77.3844 40.4753 77.3844 40.918C77.3844 41.3607 77.3844 41.8294 77.3844 42.3242V47.3633C77.3844 48.4701 77.3974 49.4401 77.4234 50.2734C77.4495 51.0938 77.4885 51.8034 77.5406 52.4023C77.5927 53.0013 77.6513 53.5026 77.7164 53.9062C77.7815 54.3099 77.8531 54.6484 77.9313 54.9219V55H73.4195V54.9219C73.4977 54.6484 73.5693 54.3099 73.6344 53.9062C73.7125 53.5026 73.7711 53.0013 73.8102 52.4023C73.8622 51.8034 73.9013 51.0938 73.9273 50.2734C73.9664 49.4401 73.9859 48.4701 73.9859 47.3633V42.6367ZM84.8484 44.9609C84.8484 43.4896 85.1219 42.1289 85.6688 40.8789C86.2156 39.6159 86.9643 38.5221 87.9148 37.5977C88.8784 36.6732 90.0112 35.9505 91.3133 35.4297C92.6154 34.9089 94.0151 34.6484 95.5125 34.6484C96.9839 34.6484 98.3641 34.8958 99.6531 35.3906C100.955 35.8724 102.088 36.5625 103.052 37.4609C104.015 38.3594 104.77 39.4531 105.317 40.7422C105.877 42.0312 106.157 43.4766 106.157 45.0781C106.157 46.4193 105.923 47.7083 105.454 48.9453C104.985 50.1823 104.295 51.276 103.384 52.2266C102.472 53.1771 101.352 53.9388 100.024 54.5117C98.7091 55.0716 97.1922 55.3516 95.4734 55.3516C94.0151 55.3516 92.6414 55.1107 91.3523 54.6289C90.0633 54.1471 88.937 53.457 87.9734 52.5586C87.0099 51.6602 86.2482 50.5729 85.6883 49.2969C85.1284 48.0078 84.8484 46.5625 84.8484 44.9609ZM95.9227 53.9258C96.8471 53.9258 97.6935 53.7435 98.4617 53.3789C99.243 53.0143 99.9135 52.487 100.473 51.7969C101.033 51.1068 101.47 50.2669 101.782 49.2773C102.095 48.2878 102.251 47.168 102.251 45.918C102.251 44.5117 102.101 43.2096 101.802 42.0117C101.502 40.8008 101.053 39.7591 100.454 38.8867C99.868 38.0013 99.1258 37.3112 98.2273 36.8164C97.3289 36.3216 96.2807 36.0742 95.0828 36.0742C94.1583 36.0742 93.312 36.2565 92.5438 36.6211C91.7755 36.9727 91.1049 37.487 90.532 38.1641C89.9721 38.8411 89.5359 39.6745 89.2234 40.6641C88.9109 41.6406 88.7547 42.7539 88.7547 44.0039C88.7547 45.4102 88.9044 46.7188 89.2039 47.9297C89.5164 49.1406 89.9721 50.1953 90.5711 51.0938C91.1701 51.9792 91.9122 52.6758 92.7977 53.1836C93.6961 53.6784 94.7378 53.9258 95.9227 53.9258ZM111.258 53.2812C112.794 53.2812 114.207 53.2161 115.496 53.0859C116.785 52.9557 117.911 52.806 118.875 52.6367C119.995 52.4544 121.017 52.2396 121.941 51.9922L121.375 55.1562C121.219 55.1432 120.984 55.1302 120.672 55.1172C120.359 55.1042 120.008 55.0911 119.617 55.0781C119.24 55.0651 118.836 55.0521 118.406 55.0391C117.99 55.0391 117.592 55.0326 117.215 55.0195C116.837 55.0195 116.499 55.013 116.199 55C115.913 55 115.704 55 115.574 55H107.137V54.9219C107.215 54.6484 107.286 54.3099 107.352 53.9062C107.43 53.5026 107.495 53.0013 107.547 52.4023C107.599 51.8034 107.638 51.0938 107.664 50.2734C107.69 49.4401 107.703 48.4701 107.703 47.3633V34.6484C107.703 33.5417 107.69 32.5781 107.664 31.7578C107.638 30.9245 107.599 30.2083 107.547 29.6094C107.495 28.9974 107.43 28.4896 107.352 28.0859C107.286 27.6823 107.215 27.3438 107.137 27.0703V26.9922H111.824V27.0703C111.746 27.3438 111.668 27.6823 111.59 28.0859C111.525 28.4896 111.466 28.9974 111.414 29.6094C111.375 30.2083 111.336 30.9245 111.297 31.7578C111.271 32.5781 111.258 33.5417 111.258 34.6484V53.2812ZM122.667 42.6367C122.667 41.5299 122.648 40.5664 122.609 39.7461C122.583 38.9128 122.543 38.1966 122.491 37.5977C122.452 36.9987 122.394 36.4974 122.316 36.0938C122.251 35.6901 122.179 35.3516 122.101 35.0781V35H126.613V35.0781C126.534 35.3516 126.463 35.6901 126.398 36.0938C126.333 36.4974 126.274 36.9987 126.222 37.5977C126.17 38.1966 126.131 38.9128 126.105 39.7461C126.079 40.5664 126.066 41.5299 126.066 42.6367V47.3633C126.066 48.4701 126.079 49.4401 126.105 50.2734C126.131 51.0938 126.17 51.8034 126.222 52.4023C126.274 53.0013 126.333 53.5026 126.398 53.9062C126.463 54.3099 126.534 54.6484 126.613 54.9219V55H122.101V54.9219C122.179 54.6484 122.251 54.3099 122.316 53.9062C122.394 53.5026 122.452 53.0013 122.491 52.4023C122.543 51.8034 122.583 51.0938 122.609 50.2734C122.648 49.4401 122.667 48.4701 122.667 47.3633V42.6367ZM122.257 29.082C122.257 28.7956 122.309 28.5286 122.413 28.2812C122.53 28.0208 122.68 27.7995 122.863 27.6172C123.045 27.4219 123.26 27.2721 123.507 27.168C123.767 27.0508 124.047 26.9922 124.347 26.9922C124.646 26.9922 124.92 27.0508 125.167 27.168C125.428 27.2721 125.649 27.4219 125.831 27.6172C126.027 27.7995 126.176 28.0208 126.28 28.2812C126.398 28.5286 126.456 28.7956 126.456 29.082C126.456 29.681 126.254 30.1823 125.851 30.5859C125.447 30.9896 124.946 31.1914 124.347 31.1914C124.047 31.1914 123.767 31.1393 123.507 31.0352C123.26 30.918 123.045 30.7682 122.863 30.5859C122.68 30.3906 122.53 30.1693 122.413 29.9219C122.309 29.6615 122.257 29.3815 122.257 29.082ZM136.225 27.0312C135.899 27.0312 135.548 27.0898 135.17 27.207C134.806 27.3242 134.467 27.5391 134.155 27.8516C133.842 28.1641 133.582 28.6003 133.373 29.1602C133.165 29.707 133.061 30.4167 133.061 31.2891V35C133.751 34.987 134.396 34.9674 134.995 34.9414C135.607 34.9154 136.153 34.8893 136.635 34.8633C137.117 34.8372 137.521 34.8112 137.846 34.7852C138.172 34.7461 138.406 34.7135 138.549 34.6875L138.198 36.6797C137.742 36.6667 137.247 36.6471 136.713 36.6211C136.258 36.5951 135.717 36.5755 135.092 36.5625C134.467 36.5495 133.79 36.5365 133.061 36.5234V47.3633C133.061 48.4701 133.074 49.4401 133.1 50.2734C133.139 51.0938 133.178 51.8034 133.217 52.4023C133.269 53.0013 133.328 53.5026 133.393 53.9062C133.471 54.3099 133.549 54.6484 133.627 54.9219V55H129.116V54.9219C129.194 54.6484 129.265 54.3099 129.33 53.9062C129.396 53.5026 129.454 53.0013 129.506 52.4023C129.558 51.8034 129.597 51.0938 129.623 50.2734C129.649 49.4401 129.662 48.4701 129.662 47.3633V36.5234L126.381 36.6406V34.9219C126.785 34.9479 127.267 34.9674 127.827 34.9805C128.386 34.9935 128.998 35 129.662 35V31.7188C129.662 30.7161 129.806 29.8307 130.092 29.0625C130.392 28.2812 130.802 27.6302 131.323 27.1094C131.843 26.5755 132.468 26.1719 133.198 25.8984C133.927 25.625 134.728 25.4883 135.6 25.4883C136.082 25.4883 136.531 25.5208 136.948 25.5859C137.364 25.651 137.735 25.7292 138.061 25.8203C138.399 25.9115 138.692 26.0091 138.94 26.1133C139.2 26.2044 139.415 26.2891 139.584 26.3672L140.346 29.7266L140.112 29.8438C139.903 29.5312 139.676 29.2122 139.428 28.8867C139.181 28.5482 138.901 28.2422 138.588 27.9688C138.276 27.6953 137.924 27.474 137.534 27.3047C137.156 27.1224 136.72 27.0312 136.225 27.0312ZM145.681 53.8477C146.072 53.8477 146.456 53.776 146.834 53.6328C147.224 53.4896 147.595 53.2943 147.947 53.0469C148.311 52.7995 148.657 52.5195 148.982 52.207C149.321 51.8815 149.633 51.543 149.92 51.1914L150.115 51.2891L148.845 54.4336C148.689 54.5117 148.494 54.6094 148.259 54.7266C148.038 54.8307 147.765 54.9284 147.439 55.0195C147.127 55.1237 146.755 55.2083 146.326 55.2734C145.896 55.3516 145.388 55.3906 144.802 55.3906C143.058 55.3906 141.697 54.9219 140.72 53.9844C139.757 53.0339 139.275 51.556 139.275 49.5508V36.5234L135.994 36.6406V34.9219C136.397 34.9479 136.879 34.9674 137.439 34.9805C137.999 34.9935 138.611 35 139.275 35C139.262 34.0755 139.236 33.2617 139.197 32.5586C139.171 31.8424 139.132 31.224 139.08 30.7031C139.041 30.1693 138.989 29.7201 138.923 29.3555C138.858 28.9909 138.793 28.6849 138.728 28.4375V28.3594H143.24V28.4375C143.162 28.6849 143.09 28.9909 143.025 29.3555C142.96 29.7201 142.901 30.1628 142.849 30.6836C142.81 31.2044 142.771 31.8229 142.732 32.5391C142.706 33.2422 142.686 34.0625 142.673 35C143.494 34.987 144.295 34.974 145.076 34.9609C145.87 34.9349 146.586 34.9089 147.224 34.8828C147.875 34.8438 148.422 34.8112 148.865 34.7852C149.321 34.7461 149.62 34.7135 149.763 34.6875L149.412 36.6797C148.748 36.6667 148.051 36.6471 147.322 36.6211C146.697 36.5951 145.981 36.5755 145.173 36.5625C144.366 36.5495 143.533 36.5365 142.673 36.5234V49.9609C142.673 50.7682 142.758 51.4258 142.927 51.9336C143.11 52.4284 143.338 52.819 143.611 53.1055C143.897 53.3919 144.216 53.5872 144.568 53.6914C144.933 53.7956 145.304 53.8477 145.681 53.8477Z" fill="#0197EC"/>
<g clip-path="url(#clip0_0_512)">
<path d="M24.8119 3.7666C22.4054 5.13252 20.2288 6.72709 18.6762 8.75491C17.0997 10.7436 16.1144 13.0482 15.7442 15.4401C15.3889 17.832 15.5023 20.3141 16.2458 22.5134C16.9863 24.7999 18.2104 27.1046 19.5211 29.4212C20.8199 31.7529 22.2441 34.1117 23.5041 36.657C24.1252 37.9356 24.7313 39.2534 25.206 40.6645C25.6837 42.0815 26.039 43.5467 26.2331 45.036C26.5854 48.0145 26.2988 51.0623 25.3165 53.8031C24.3491 56.55 22.8234 59.0051 20.8946 61.0028C21.9486 58.4274 22.7995 55.861 23.0652 53.2616C23.3907 50.6802 23.1936 48.1289 22.5845 45.719C22.268 44.5125 21.8291 43.3481 21.3365 42.2079C20.811 41.0706 20.2109 39.9243 19.554 38.7871C18.2432 36.5035 16.7892 34.2079 15.4068 31.7739C14.0513 29.3279 12.7107 26.7465 11.9314 23.759C11.5462 22.2817 11.3492 20.6179 11.4119 19.1136C11.4537 17.5792 11.6776 16.0448 12.1225 14.5736C12.9824 11.6251 14.732 8.94746 17.037 7.09114C19.351 5.2318 22.071 4.13065 24.8119 3.7666Z" fill="#7B991F"/>
<path d="M26.0981 22.5247C27.9882 21.7834 28.9241 19.6385 28.1885 17.7339C27.4528 15.8293 25.3242 14.8862 23.4341 15.6275C21.544 16.3688 20.6081 18.5137 21.3437 20.4183C22.0794 22.3229 24.208 23.266 26.0981 22.5247Z" fill="#7B991F"/>
<path d="M33.5687 26.0698C29.4693 28.8528 27.2897 29.298 21.5959 30.7211L21.9154 31.3981C21.9542 31.4703 21.999 31.5545 22.0467 31.6448C22.9036 33.2032 25.6207 38.6579 25.7759 38.9046C25.976 39.2175 26.1521 39.6327 26.3343 39.8162C26.3611 39.6688 26.4089 39.2145 26.4298 39.0641C27.5793 31.01 39.8716 29.8276 39.997 16.6738C40 16.6738 38.7788 22.5316 33.5687 26.0698Z" fill="#7B991F"/>
<path d="M18.253 3.6585C19.2556 3.6585 20.0684 2.83951 20.0684 1.82925C20.0684 0.818982 19.2556 0 18.253 0C17.2505 0 16.4377 0.818982 16.4377 1.82925C16.4377 2.83951 17.2505 3.6585 18.253 3.6585Z" fill="#01AFEC"/>
<path d="M11.6247 3.01744C12.276 3.01744 12.804 2.48537 12.804 1.82903C12.804 1.17269 12.276 0.640625 11.6247 0.640625C10.9733 0.640625 10.4453 1.17269 10.4453 1.82903C10.4453 2.48537 10.9733 3.01744 11.6247 3.01744Z" fill="#01AFEC"/>
<path d="M15.2285 2.50005H14.0163C13.649 2.50005 13.3504 2.19919 13.3504 1.82913C13.3504 1.45907 13.649 1.1582 14.0163 1.1582H15.2285C15.5957 1.1582 15.8943 1.45907 15.8943 1.82913C15.8943 2.19919 15.5957 2.50005 15.2285 2.50005Z" fill="#01AFEC"/>
<path d="M12.4405 7.86748C13.4431 7.86748 14.2559 7.0485 14.2559 6.03823C14.2559 5.02797 13.4431 4.20898 12.4405 4.20898C11.4379 4.20898 10.6252 5.02797 10.6252 6.03823C10.6252 7.0485 11.4379 7.86748 12.4405 7.86748Z" fill="#01AFEC"/>
<path d="M5.81218 7.22643C6.46353 7.22643 6.99155 6.69436 6.99155 6.03802C6.99155 5.38168 6.46353 4.84961 5.81218 4.84961C5.16083 4.84961 4.63281 5.38168 4.63281 6.03802C4.63281 6.69436 5.16083 7.22643 5.81218 7.22643Z" fill="#01AFEC"/>
<path d="M9.41299 6.70904H8.20376C7.83652 6.70904 7.53794 6.40817 7.53794 6.03811C7.53794 5.66805 7.83652 5.36719 8.20376 5.36719H9.41597C9.78322 5.36719 10.0818 5.66805 10.0818 6.03811C10.0788 6.41118 9.78023 6.70904 9.41299 6.70904Z" fill="#01AFEC"/>
<path d="M9.26177 13.1746C10.2644 13.1746 11.0771 12.3556 11.0771 11.3454C11.0771 10.3351 10.2644 9.51611 9.26177 9.51611C8.25919 9.51611 7.44644 10.3351 7.44644 11.3454C7.44644 12.3556 8.25919 13.1746 9.26177 13.1746Z" fill="#01AFEC"/>
<path d="M2.63342 12.5336C3.28477 12.5336 3.81279 12.0015 3.81279 11.3451C3.81279 10.6888 3.28477 10.1567 2.63342 10.1567C1.98208 10.1567 1.45406 10.6888 1.45406 11.3451C1.45406 12.0015 1.98208 12.5336 2.63342 12.5336Z" fill="#01AFEC"/>
<path d="M6.23423 12.0191H5.02202C4.65478 12.0191 4.3562 11.7182 4.3562 11.3482C4.3562 10.9781 4.65478 10.6772 5.02202 10.6772H6.23423C6.60148 10.6772 6.90005 10.9781 6.90005 11.3482C6.90304 11.7182 6.60447 12.0191 6.23423 12.0191Z" fill="#01AFEC"/>
<path d="M7.81045 19.0325C8.81303 19.0325 9.62578 18.2135 9.62578 17.2033C9.62578 16.193 8.81303 15.374 7.81045 15.374C6.80787 15.374 5.99512 16.193 5.99512 17.2033C5.99512 18.2135 6.80787 19.0325 7.81045 19.0325Z" fill="#01AFEC"/>
<path d="M1.17937 18.3915C1.83072 18.3915 2.35874 17.8594 2.35874 17.2031C2.35874 16.5467 1.83072 16.0146 1.17937 16.0146C0.528021 16.0146 0 16.5467 0 17.2031C0 17.8594 0.528021 18.3915 1.17937 18.3915Z" fill="#01AFEC"/>
<path d="M4.78316 17.8741H3.57095C3.2037 17.8741 2.90513 17.5732 2.90513 17.2032C2.90513 16.8331 3.2037 16.5322 3.57095 16.5322H4.78316C5.15041 16.5322 5.44898 16.8331 5.44898 17.2032C5.44898 17.5732 5.15041 17.8741 4.78316 17.8741Z" fill="#01AFEC"/>
<path d="M7.81045 25.6214C8.81303 25.6214 9.62578 24.8024 9.62578 23.7921C9.62578 22.7819 8.81303 21.9629 7.81045 21.9629C6.80787 21.9629 5.99512 22.7819 5.99512 23.7921C5.99512 24.8024 6.80787 25.6214 7.81045 25.6214Z" fill="#01AFEC"/>
<path d="M1.17937 24.9803C1.83072 24.9803 2.35874 24.4483 2.35874 23.7919C2.35874 23.1356 1.83072 22.6035 1.17937 22.6035C0.528021 22.6035 0 23.1356 0 23.7919C0 24.4483 0.528021 24.9803 1.17937 24.9803Z" fill="#01AFEC"/>
<path d="M4.78316 24.4629H3.57095C3.2037 24.4629 2.90513 24.1621 2.90513 23.792C2.90513 23.422 3.2037 23.1211 3.57095 23.1211H4.78316C5.15041 23.1211 5.44898 23.422 5.44898 23.792C5.44898 24.1621 5.15041 24.4629 4.78316 24.4629Z" fill="#01AFEC"/>
<path d="M9.62603 32.0267C10.6286 32.0267 11.4414 31.2077 11.4414 30.1974C11.4414 29.1871 10.6286 28.3682 9.62603 28.3682C8.62345 28.3682 7.8107 29.1871 7.8107 30.1974C7.8107 31.2077 8.62345 32.0267 9.62603 32.0267Z" fill="#01AFEC"/>
<path d="M2.99768 31.3856C3.64903 31.3856 4.17705 30.8535 4.17705 30.1972C4.17705 29.5409 3.64903 29.0088 2.99768 29.0088C2.34633 29.0088 1.81831 29.5409 1.81831 30.1972C1.81831 30.8535 2.34633 31.3856 2.99768 31.3856Z" fill="#01AFEC"/>
<path d="M6.59849 30.8682H5.38628C5.01903 30.8682 4.72046 30.5674 4.72046 30.1973C4.72046 29.8272 5.01903 29.5264 5.38628 29.5264H6.59849C6.96574 29.5264 7.26431 29.8272 7.26431 30.1973C7.26431 30.5674 6.96574 30.8682 6.59849 30.8682Z" fill="#01AFEC"/>
<path d="M13.077 37.8846C14.0796 37.8846 14.8924 37.0656 14.8924 36.0553C14.8924 35.0451 14.0796 34.2261 13.077 34.2261C12.0745 34.2261 11.2617 35.0451 11.2617 36.0553C11.2617 37.0656 12.0745 37.8846 13.077 37.8846Z" fill="#01AFEC"/>
<path d="M6.44597 37.2435C7.09732 37.2435 7.62534 36.7114 7.62534 36.0551C7.62534 35.3988 7.09732 34.8667 6.44597 34.8667C5.79462 34.8667 5.2666 35.3988 5.2666 36.0551C5.2666 36.7114 5.79462 37.2435 6.44597 37.2435Z" fill="#01AFEC"/>
<path d="M10.0498 36.7261H8.83756C8.47031 36.7261 8.17174 36.4253 8.17174 36.0552C8.17174 35.6851 8.47031 35.3843 8.83756 35.3843H10.0498C10.417 35.3843 10.7156 35.6851 10.7156 36.0552C10.7156 36.4253 10.417 36.7261 10.0498 36.7261Z" fill="#01AFEC"/>
<path d="M15.8009 43.7396C16.8035 43.7396 17.6162 42.9206 17.6162 41.9103C17.6162 40.9 16.8035 40.0811 15.8009 40.0811C14.7983 40.0811 13.9855 40.9 13.9855 41.9103C13.9855 42.9206 14.7983 43.7396 15.8009 43.7396Z" fill="#01AFEC"/>
<path d="M9.17253 43.0985C9.82388 43.0985 10.3519 42.5664 10.3519 41.9101C10.3519 41.2537 9.82388 40.7217 9.17253 40.7217C8.52118 40.7217 7.99316 41.2537 7.99316 41.9101C7.99316 42.5664 8.52118 43.0985 9.17253 43.0985Z" fill="#01AFEC"/>
<path d="M12.7733 42.5811H11.5611C11.1939 42.5811 10.8953 42.2802 10.8953 41.9102C10.8953 41.5401 11.1939 41.2393 11.5611 41.2393H12.7733C13.1406 41.2393 13.4392 41.5401 13.4392 41.9102C13.4392 42.2802 13.1436 42.5811 12.7733 42.5811Z" fill="#01AFEC"/>
<path d="M18.5263 49.5975C19.5289 49.5975 20.3416 48.7785 20.3416 47.7682C20.3416 46.7579 19.5289 45.939 18.5263 45.939C17.5237 45.939 16.711 46.7579 16.711 47.7682C16.711 48.7785 17.5237 49.5975 18.5263 49.5975Z" fill="#01AFEC"/>
<path d="M11.8952 48.9564C12.5466 48.9564 13.0746 48.4243 13.0746 47.768C13.0746 47.1117 12.5466 46.5796 11.8952 46.5796C11.2439 46.5796 10.7158 47.1117 10.7158 47.768C10.7158 48.4243 11.2439 48.9564 11.8952 48.9564Z" fill="#01AFEC"/>
<path d="M15.499 48.439H14.2868C13.9195 48.439 13.621 48.1382 13.621 47.7681C13.621 47.398 13.9195 47.0972 14.2868 47.0972H15.499C15.8662 47.0972 16.1648 47.398 16.1648 47.7681C16.1648 48.1382 15.8662 48.439 15.499 48.439Z" fill="#01AFEC"/>
<path d="M18.7062 55.2684C19.7087 55.2684 20.5215 54.4494 20.5215 53.4391C20.5215 52.4288 19.7087 51.6099 18.7062 51.6099C17.7036 51.6099 16.8908 52.4288 16.8908 53.4391C16.8908 54.4494 17.7036 55.2684 18.7062 55.2684Z" fill="#01AFEC"/>
<path d="M12.0778 54.6273C12.7292 54.6273 13.2572 54.0952 13.2572 53.4389C13.2572 52.7826 12.7292 52.2505 12.0778 52.2505C11.4265 52.2505 10.8984 52.7826 10.8984 53.4389C10.8984 54.0952 11.4265 54.6273 12.0778 54.6273Z" fill="#01AFEC"/>
<path d="M15.6816 54.1099H14.4694C14.1021 54.1099 13.8036 53.8091 13.8036 53.439C13.8036 53.0689 14.1021 52.7681 14.4694 52.7681H15.6816C16.0488 52.7681 16.3474 53.0689 16.3474 53.439C16.3474 53.8121 16.0488 54.1099 15.6816 54.1099Z" fill="#01AFEC"/>
<path d="M17.0725 60.7591C18.0751 60.7591 18.8878 59.9401 18.8878 58.9298C18.8878 57.9196 18.0751 57.1006 17.0725 57.1006C16.0699 57.1006 15.2571 57.9196 15.2571 58.9298C15.2571 59.9401 16.0699 60.7591 17.0725 60.7591Z" fill="#01AFEC"/>
<path d="M10.4441 60.118C11.0955 60.118 11.6235 59.586 11.6235 58.9296C11.6235 58.2733 11.0955 57.7412 10.4441 57.7412C9.79278 57.7412 9.26476 58.2733 9.26476 58.9296C9.26476 59.586 9.79278 60.118 10.4441 60.118Z" fill="#01AFEC"/>
<path d="M14.0449 59.6006H12.8327C12.4655 59.6006 12.1669 59.2998 12.1669 58.9297C12.1669 58.5597 12.4655 58.2588 12.8327 58.2588H14.0449C14.4122 58.2588 14.7108 58.5597 14.7108 58.9297C14.7108 59.2998 14.4122 59.6006 14.0449 59.6006Z" fill="#01AFEC"/>
</g>
<defs>
<clipPath id="clip0_0_512">
<rect width="40" height="61" fill="white"/>
</clipPath>
</defs>
</svg>
