<svg width="28" height="49" viewBox="0 0 28 49" fill="none" xmlns="http://www.w3.org/2000/svg">
<path d="M2.5081 7.64779C2.40101 7.5976 2.28506 7.56902 2.16691 7.56369C2.04876 7.55836 1.93071 7.57638 1.81953 7.61672C1.70835 7.65706 1.60622 7.71894 1.51897 7.7988C1.43173 7.87866 1.3611 7.97494 1.31111 8.08213C-0.024926 10.9405 -0.3515 14.1676 0.384799 17.2356C0.170072 17.7348 0.05907 18.2725 0.0585334 18.816C0.0585425 19.7463 0.378073 20.6484 0.963656 21.3713C1.54924 22.0942 2.36534 22.5941 3.2754 22.7873C3.47926 24.5805 4.15176 26.2883 5.22525 27.7391C6.29874 29.1898 7.73536 30.3323 9.39058 31.0515V33.3992H9.28302C6.83742 33.4018 4.49271 34.3744 2.76336 36.1036C1.03401 37.8329 0.0612579 40.1775 0.0585334 42.6231V47.2176C0.0585334 47.4565 0.153415 47.6855 0.322306 47.8544C0.491197 48.0233 0.720263 48.1182 0.959111 48.1182H27.0501C27.289 48.1182 27.518 48.0233 27.6869 47.8544C27.8558 47.6855 27.9507 47.4565 27.9507 47.2176V42.6231C27.9529 41.4118 27.7155 40.212 27.2521 39.0928C26.7887 37.9736 26.1084 36.9571 25.2505 36.1019C24.3952 35.2439 23.3786 34.5636 22.2592 34.1003C21.1398 33.6369 19.9398 33.3997 18.7283 33.4023H18.6207V31.051C20.2757 30.3315 21.712 29.189 22.7853 27.7383C23.8586 26.2875 24.531 24.5798 24.7349 22.7868C25.6445 22.5931 26.4602 22.0932 27.0455 21.3705C27.6308 20.6477 27.9503 19.746 27.9507 18.816C27.9496 18.2723 27.8381 17.7344 27.6229 17.2351C28.204 14.7818 28.1121 12.2171 27.357 9.81165C26.6019 7.4062 25.2115 5.24916 23.3326 3.56809C21.4536 1.88703 19.1558 0.744276 16.6814 0.260396C14.2071 -0.223484 11.6481 -0.0305513 9.27427 0.818841C9.04941 0.899435 8.86578 1.06605 8.76377 1.28204C8.66176 1.49803 8.64973 1.74569 8.73032 1.97055C8.81092 2.19541 8.97754 2.37904 9.19352 2.48105C9.40951 2.58306 9.65718 2.59509 9.88203 2.5145C11.8383 1.80786 13.9429 1.61371 15.9954 1.95056C18.0479 2.28741 19.98 3.14403 21.6078 4.43887C23.2356 5.73371 24.5048 7.42366 25.2947 9.34782C26.0846 11.272 26.3688 13.3663 26.1202 15.4314C26.0053 15.3518 25.8865 15.2781 25.7641 15.2106C25.4533 15.0489 25.1229 14.9278 24.7812 14.8504V13.7414C24.7786 12.3447 24.3149 10.9879 23.4622 9.88174C23.2482 9.6062 23.0142 9.34666 22.7624 9.10518C22.6222 8.97101 22.4423 8.88573 22.2497 8.86209C22.0571 8.83844 21.862 8.87768 21.6935 8.97396C20.878 9.43781 19.9557 9.68132 19.0175 9.68052H6.83242C6.46028 9.68237 6.09197 9.60537 5.75173 9.45461C5.57132 9.37437 5.36956 9.35553 5.17742 9.40098C4.98527 9.44644 4.81335 9.55368 4.68802 9.70626C3.75061 10.8422 3.23417 12.267 3.22599 13.7398V14.8483C2.88593 14.9258 2.55729 15.0469 2.24822 15.2085C2.12426 15.276 2.00402 15.35 1.88799 15.4303C1.61648 13.1792 1.98199 10.897 2.94295 8.84325C3.04338 8.62699 3.054 8.37975 2.9725 8.15568C2.89099 7.93161 2.724 7.74898 2.5081 7.64779ZM24.7827 16.7359C24.8342 16.7575 24.8857 16.7812 24.9325 16.8069C25.3222 17.0081 25.6443 17.3193 25.8588 17.7018C25.867 17.7193 25.8753 17.7363 25.8845 17.7533C26.0595 18.0801 26.1506 18.4453 26.1496 18.816C26.1494 19.258 26.0196 19.6902 25.7765 20.0592C25.5333 20.4283 25.1872 20.7179 24.7812 20.8925L24.7827 16.7359ZM18.7262 35.2003C19.7012 35.1998 20.6667 35.3914 21.5675 35.7642C22.4684 36.1371 23.2869 36.6838 23.9763 37.3732C24.6658 38.0626 25.2125 38.8811 25.5854 39.7819C25.9583 40.6827 26.15 41.6482 26.1496 42.6231V46.3171H1.85969V42.6231C1.86187 40.6551 2.64468 38.7682 4.03637 37.3766C5.42806 35.9851 7.31495 35.2024 9.28302 35.2003H9.82183C10.1385 35.8026 10.6141 36.3066 11.197 36.6577C11.7799 37.0087 12.4478 37.1935 13.1282 37.1919H14.8795C15.5599 37.1935 16.2278 37.0087 16.8107 36.6577C17.3936 36.3066 17.8692 35.8026 18.1859 35.2003H18.7262ZM11.1917 33.4506V31.6788C13.0361 32.1598 14.9731 32.1598 16.8175 31.6788V33.4486C16.8171 33.6468 16.7878 33.8439 16.7305 34.0337C16.607 34.4277 16.3607 34.7719 16.0277 35.016C15.6947 35.2601 15.2924 35.3914 14.8795 35.3907H13.1298C12.7166 35.3918 12.3139 35.2606 11.9806 35.0165C11.6473 34.7723 11.4008 34.4279 11.2772 34.0337C11.2204 33.8438 11.1916 33.6467 11.1917 33.4486V33.4506ZM5.02766 15.6465V13.7424C5.02811 12.894 5.26958 12.0633 5.72394 11.3469C6.08622 11.4389 6.45863 11.4851 6.83242 11.4843H19.0206C20.0271 11.4843 21.0226 11.2739 21.9431 10.8667C21.9745 10.9053 22.0059 10.9439 22.0362 10.983C22.6462 11.774 22.9784 12.744 22.9816 13.7429V15.6413V15.648L22.9847 21.8635C22.9797 21.9026 22.9773 21.942 22.9775 21.9814C22.9775 22.1826 22.9636 22.3874 22.9471 22.5814C22.7669 24.1542 22.1516 25.6456 21.1704 26.8879C20.1893 28.1303 18.8811 29.0744 17.3929 29.6142C15.2086 30.4437 12.796 30.4437 10.6118 29.6142C9.12449 29.074 7.81728 28.1299 6.83695 26.8879C5.85662 25.6458 5.24201 24.155 5.06214 22.583C5.04568 22.3859 5.03178 22.1811 5.03178 21.9798C5.03273 21.9445 5.03136 21.909 5.02766 21.8738V15.6465ZM2.12472 17.7518C2.33801 17.3467 2.6705 17.0169 3.07727 16.8069C3.12616 16.7807 3.17608 16.7555 3.22651 16.7359V20.894C2.9389 20.7705 2.68008 20.5885 2.46644 20.3597C2.25281 20.1309 2.08902 19.8603 1.98544 19.5649C1.88187 19.2695 1.84076 18.9558 1.86474 18.6437C1.88871 18.3316 1.97724 18.0279 2.12472 17.7518Z" fill="#1D448E"/>
<path d="M5.97684 4.81698C6.14667 4.66843 6.32026 4.52485 6.49763 4.38625C6.59315 4.3143 6.67338 4.22404 6.73364 4.12075C6.7939 4.01745 6.83299 3.90319 6.84862 3.78463C6.86424 3.66607 6.8561 3.54558 6.82467 3.4302C6.79323 3.31482 6.73913 3.20686 6.66552 3.11261C6.59192 3.01836 6.50028 2.93972 6.39595 2.88127C6.29162 2.82281 6.1767 2.78573 6.05788 2.77217C5.93907 2.75861 5.81874 2.76884 5.70392 2.80229C5.58911 2.83573 5.4821 2.8917 5.38915 2.96694C5.18331 3.12544 4.98672 3.29063 4.79168 3.46046C4.62011 3.61968 4.51727 3.83944 4.50496 4.07319C4.49264 4.30693 4.57181 4.53629 4.7257 4.71266C4.87959 4.88903 5.09611 4.99856 5.32936 5.01803C5.56262 5.0375 5.7943 4.9654 5.9753 4.81698H5.97684Z" fill="#1D448E"/>
<path d="M21.6474 40.0132H20.8457C20.6724 40.0133 20.5063 40.0822 20.3839 40.2048C20.2614 40.3273 20.1926 40.4935 20.1926 40.6667V41.6234H19.2354C19.0625 41.6242 18.897 41.6935 18.7751 41.8161C18.6532 41.9387 18.5848 42.1046 18.585 42.2775V43.0793C18.585 43.2525 18.6538 43.4186 18.7762 43.541C18.8987 43.6635 19.0648 43.7323 19.238 43.7323H20.1952V44.6895C20.1952 44.8627 20.264 45.0288 20.3865 45.1513C20.5089 45.2737 20.675 45.3425 20.8482 45.3425H21.65C21.8233 45.3425 21.9894 45.2738 22.112 45.1513C22.2345 45.0289 22.3034 44.8627 22.3036 44.6895V43.7323H23.2577C23.3435 43.7324 23.4285 43.7155 23.5077 43.6828C23.587 43.65 23.6591 43.6019 23.7198 43.5412C23.7805 43.4806 23.8286 43.4086 23.8615 43.3293C23.8943 43.25 23.9112 43.1651 23.9112 43.0793V42.2775C23.9112 42.1042 23.8424 41.9379 23.7198 41.8154C23.5972 41.6928 23.431 41.6239 23.2577 41.6239H22.301V40.6662C22.3007 40.493 22.2318 40.327 22.1092 40.2046C21.9867 40.0821 21.8206 40.0133 21.6474 40.0132Z" fill="#1D448E"/>
<path d="M11.8201 45.6736C12.0248 45.6736 12.2212 45.5922 12.366 45.4475C12.5107 45.3027 12.592 45.1064 12.592 44.9016V41.2885C12.592 41.0838 12.5107 40.8875 12.366 40.7427C12.2212 40.5979 12.0248 40.5166 11.8201 40.5166H5.38228C5.17755 40.5166 4.98121 40.5979 4.83644 40.7427C4.69168 40.8875 4.61035 41.0838 4.61035 41.2885V44.9016C4.61035 45.1064 4.69168 45.3027 4.83644 45.4475C4.98121 45.5922 5.17755 45.6736 5.38228 45.6736H11.8201ZM6.1542 42.0604H11.0482V44.1297H6.1542V42.0604Z" fill="#1D448E"/>
</svg>
