<svg width="73" height="65" viewBox="0 0 73 65" fill="none" xmlns="http://www.w3.org/2000/svg">
<path d="M33.5185 20.3481C32.1275 21.9216 24.1777 31.7754 15.8939 43.7811C15.7975 43.9222 15.7389 44.084 15.7252 44.2527C15.5117 46.9142 15.8663 47.9333 16.8131 50.6532C17.3743 52.2646 18.1456 54.4715 19.1716 58.0591C19.9497 60.7722 21.0273 61.5709 22.2806 62.4936C22.3185 62.5212 22.3529 62.5487 22.3908 62.5763C22.2496 62.7278 22.0327 62.9103 21.7848 63.0411C21.0239 63.227 16.1452 62.4454 14.3032 57.5495C13.5457 55.5354 10.1097 52.5125 6.4842 50.6705C4.594 49.7099 2.28032 46.0603 2.25622 45.3097C2.37672 44.239 4.00181 43.2715 5.7233 42.2455C6.96277 41.5052 8.247 40.7409 9.27989 39.7769C14.2378 35.2115 14.978 32.9391 16.0006 29.7922C16.2864 28.9143 16.579 28.0088 17.0025 26.9518C17.5637 25.5436 18.001 24.0769 18.421 22.6618C19.54 18.8952 20.6004 15.3386 23.8919 12.4362C24.2052 12.1607 24.3051 11.7166 24.1432 11.3344L19.6433 0.595775C19.4367 0.0999861 18.8651 -0.130693 18.3728 0.0758853C17.877 0.282464 17.6463 0.850556 17.8529 1.34634L22.0947 11.4515C18.786 14.6294 17.6567 18.427 16.5652 22.1041C16.1383 23.5432 15.732 24.9032 15.2018 26.2288C14.7577 27.3443 14.4375 28.3255 14.1586 29.1897C13.1911 32.1644 12.5542 34.1269 7.96123 38.3515C7.07639 39.1778 5.88512 39.8905 4.73172 40.5756C2.5833 41.8564 0.555386 43.0615 0.328149 45.0928C0.131899 46.8522 3.28911 51.2213 5.60624 52.3988C9.02167 54.1341 11.9723 56.8644 12.4888 58.2312C13.9451 62.0977 16.9371 63.7469 18.5932 64.3838C19.509 64.735 20.6073 65.0001 21.5025 65.0001C21.9501 65.0001 22.346 64.9347 22.6455 64.7798C23.2825 64.4527 24.3877 63.6195 24.4772 62.5797C24.522 62.0633 24.3051 61.5813 23.8816 61.2611C23.7301 61.144 23.5786 61.0338 23.4374 60.9305C22.2771 60.0732 21.6367 59.6015 21.0411 57.522C19.9979 53.8828 19.2198 51.6448 18.6482 50.0128C17.7634 47.4754 17.4983 46.7179 17.6429 44.6659C25.7063 32.9976 33.6562 23.1163 34.9714 21.6324C35.326 21.233 35.2882 20.6167 34.8888 20.2621C34.4859 19.9109 33.8731 19.9453 33.5185 20.3481Z" fill="#2B2D2F"/>
<path d="M72.2147 58.5031C71.8808 58.1003 71.385 57.9075 70.8479 57.9798C70.6516 58.0073 70.4623 58.0349 70.2832 58.059C68.8544 58.269 67.9936 58.3929 66.0415 57.3015C62.6398 55.3941 60.4501 54.3233 58.8491 53.5452C56.4011 52.3505 55.6437 51.9787 54.2975 50.4396C54.3285 49.7717 54.3629 49.0969 54.3973 48.4255C55.9432 48.3566 57.1792 47.0827 57.1792 45.5231V42.3383C57.1792 40.9577 56.2152 39.8043 54.9241 39.5047C55.0067 38.2687 55.0962 37.0637 55.1858 35.8999C56.5113 35.6279 57.5098 34.4539 57.5098 33.0492V29.1965C57.5098 28.1326 56.9348 27.203 56.0809 26.6969C56.3323 24.7929 56.5871 23.4914 56.8281 23.0576C57.0863 22.6858 58.856 20.0278 58.6942 17.4249C58.5702 15.4245 57.9952 14.068 57.4891 12.8699C57.0587 11.8576 56.6903 10.9797 56.6077 9.81249C56.6043 9.74019 56.6043 9.661 56.6008 9.58525C57.8816 9.27883 58.8388 8.12887 58.8388 6.75513V2.90932C58.8388 1.30489 57.5339 0 55.9294 0H38.236C36.6315 0 35.3267 1.30489 35.3267 2.90932V6.75857C35.3267 8.363 36.6315 9.66789 38.236 9.66789H38.6836C39.3963 13.6308 39.6201 16.9085 39.6683 17.7658C38.3014 20.9677 38.0845 23.8736 38.4322 26.6796C37.568 27.1858 36.9827 28.1223 36.9827 29.193V33.0423C36.9827 34.6467 38.2876 35.9516 39.892 35.9516H40.894C41.2624 37.1153 41.617 38.3204 41.9337 39.5805C40.7907 39.973 39.9678 41.0575 39.9678 42.3314V45.5162C39.9678 47.1206 41.2727 48.4255 42.8771 48.4255H43.0011C42.9735 49.7545 42.8599 51.1455 42.6258 52.6156C42.4708 53.59 42.1954 54.6607 41.9303 55.6936C41.2142 58.479 40.4739 61.3573 41.9165 63.1787C42.7497 64.2288 45.9448 64.9966 48.5821 64.9966C49.5152 64.9966 50.3794 64.9002 51.0404 64.6867C54.8001 63.4782 58.9524 63.337 60.3227 63.9637C64.1788 65.7334 67.5564 64.7693 69.2228 64.0394C70.6034 63.4334 72.139 62.3868 72.4592 61.409C72.6933 60.7169 72.8965 59.3191 72.2147 58.5031ZM55.2374 42.3349V45.5196C55.2374 46.0533 54.8036 46.4905 54.2665 46.4905H49.6873L49.6219 41.364H54.263C54.8036 41.3674 55.2374 41.8012 55.2374 42.3349ZM48.41 14.9838C50.0626 14.9838 51.4054 16.3266 51.4054 17.9792C51.4054 19.6319 50.0626 20.9746 48.41 20.9746C46.7574 20.9746 45.4146 19.6319 45.4146 17.9792C45.4146 16.3266 46.7574 14.9838 48.41 14.9838ZM49.6012 39.4256L49.5565 35.955H53.2302C53.1406 37.1153 53.058 38.2825 52.9788 39.4256H49.6012ZM55.5714 33.0457C55.5714 33.5794 55.1376 34.0166 54.6005 34.0166H49.5324L49.4601 28.229H54.6005C55.1341 28.229 55.5714 28.6628 55.5714 29.1999V33.0457ZM56.7592 17.5454C56.8866 19.5974 55.2408 21.949 55.2236 21.9697C55.2099 21.9903 55.1961 22.011 55.1823 22.0316C54.8277 22.6204 54.5006 24.1766 54.2011 26.2837H49.4325L49.3878 22.8132C51.6395 22.3553 53.3403 20.3618 53.3403 17.9758C53.3403 15.4349 51.4123 13.3381 48.9402 13.0695L48.6372 9.66789H54.659C54.6624 9.76085 54.6624 9.85725 54.6693 9.94677C54.7726 11.4376 55.2443 12.5497 55.6988 13.6273C56.1911 14.7842 56.6559 15.8756 56.7592 17.5454ZM37.2651 6.75857V2.90932C37.2651 2.37566 37.6989 1.9384 38.236 1.9384H55.9294C56.4631 1.9384 56.9004 2.37221 56.9004 2.90932V6.75857C56.9004 7.29223 56.4666 7.72949 55.9294 7.72949H38.236C37.6989 7.72949 37.2651 7.29567 37.2651 6.75857ZM46.6919 9.67133L47.0121 13.2486C44.9704 13.8545 43.4727 15.7447 43.4727 17.9792C43.4727 20.3721 45.1839 22.3725 47.4494 22.8201L47.4941 26.2837H40.3396C40.0504 23.7462 40.288 21.1709 41.5378 18.3373C41.5998 18.1996 41.6273 18.0515 41.6204 17.9035C41.6101 17.6797 41.4517 14.161 40.6633 9.66789H46.6919V9.67133ZM38.9246 33.0457V29.1965C38.9246 28.6628 39.3584 28.2255 39.8955 28.2255H47.5183L47.5906 34.0132H39.892C39.3584 34.0132 38.9246 33.5794 38.9246 33.0457ZM47.6181 35.955L47.6629 39.4256H43.9066C43.6105 38.224 43.2799 37.0706 42.9356 35.955H47.6181ZM41.9131 45.5196V42.3349C41.9131 41.8012 42.3469 41.364 42.884 41.364H47.687L47.7524 46.4905H42.8806C42.3469 46.4905 41.9131 46.0567 41.9131 45.5196ZM70.631 60.7824C70.2213 61.4744 66.0828 64.4732 61.1387 62.2043C59.128 61.2816 54.4352 61.5639 50.4551 62.8447C48.3549 63.5195 44.003 62.5211 43.4452 61.9771C42.6017 60.9132 43.2214 58.5065 43.8205 56.1825C44.0994 55.1049 44.3851 53.9928 44.5538 52.9255C44.8052 51.3451 44.9257 49.8543 44.9567 48.4324H52.4589C52.4107 49.4136 52.3729 50.2055 52.3487 50.7357C52.3384 50.9802 52.4176 51.2178 52.576 51.4071C54.3457 53.5039 55.3407 53.9894 58.0021 55.2908C59.5824 56.062 61.7446 57.119 65.0981 58.9989C67.6252 60.414 68.9887 60.2143 70.569 59.9836C70.6275 59.9767 70.6826 59.9664 70.7411 59.9595C70.7446 60.1729 70.7205 60.4863 70.631 60.7824Z" fill="#2B2D2F"/>
</svg>
