<svg width="67" height="65" viewBox="0 0 67 65" fill="none" xmlns="http://www.w3.org/2000/svg">
<path d="M34.3247 55.8124H32.6763C32.1111 55.8124 31.6546 56.2689 31.6546 56.834C31.6546 57.3992 32.1111 57.8557 32.6763 57.8557H34.3247C34.8899 57.8557 35.3463 57.3992 35.3463 56.834C35.3427 56.2689 34.8862 55.8124 34.3247 55.8124Z" fill="#2B2D2F"/>
<path d="M1.21167 14.1601C1.37107 14.2506 1.54135 14.2941 1.71525 14.2941C2.07029 14.2941 2.41809 14.1093 2.60285 13.776C6.4576 6.96502 12.5875 8.5301 12.8411 8.59894C12.9389 8.62792 13.044 8.63879 13.1454 8.63517C20.2861 8.41779 26.3798 1.99443 26.6334 1.71909C27.0174 1.30608 26.9957 0.661207 26.5863 0.277182C26.1733 -0.106843 25.5284 -0.0887291 25.1444 0.324279C25.0864 0.385868 19.4456 6.32377 13.2143 6.58824C12.0187 6.33464 5.09539 5.22966 0.827642 12.7689C0.548681 13.2616 0.722579 13.8847 1.21167 14.1601Z" fill="#2B2D2F"/>
<path d="M53.8522 8.63524C53.95 8.63524 54.0551 8.62437 54.1529 8.59901C54.4137 8.53017 60.54 6.96509 64.3948 13.7761C64.5831 14.1094 64.9273 14.2942 65.286 14.2942C65.4563 14.2942 65.6302 14.2507 65.7896 14.1601C66.2787 13.8812 66.4526 13.258 66.1736 12.7689C61.9058 5.22973 54.9825 6.33471 53.787 6.58831C47.5629 6.32022 41.9293 0.40043 41.8532 0.32435C41.4692 -0.0886588 40.8207 -0.110396 40.4113 0.277252C39.9983 0.661277 39.9765 1.30977 40.3642 1.71916C40.6214 1.9945 46.7115 8.41786 53.8522 8.63524Z" fill="#2B2D2F"/>
<path d="M39.6904 33.9629C37.8391 33.3615 36.1037 32.4195 34.5205 31.1587V19.3337C34.5205 18.7685 34.064 18.312 33.4989 18.312C32.9337 18.312 32.4772 18.7685 32.4772 19.3337V31.1624C30.894 32.4231 29.1586 33.3651 27.3074 33.9665C26.7712 34.1404 26.4777 34.7164 26.6516 35.2526C26.7929 35.6837 27.1914 35.9591 27.6225 35.9591C27.7276 35.9591 27.8327 35.9446 27.9377 35.9083C29.9231 35.2635 31.7889 34.2708 33.4989 32.9557C35.2052 34.2708 37.071 35.2635 39.06 35.9083C39.165 35.9409 39.2701 35.9591 39.3752 35.9591C39.8063 35.9591 40.2048 35.6837 40.3461 35.2526C40.52 34.7128 40.2265 34.1404 39.6904 33.9629Z" fill="#2B2D2F"/>
<path d="M9.73256 23.7102C9.25434 23.8298 8.92828 24.2754 8.96088 24.7681C8.979 25.0724 9.35215 32.2493 1.12097 38.1474C0.660866 38.4771 0.555803 39.1147 0.885485 39.5712C1.21517 40.0277 1.85279 40.1327 2.30928 39.8067C7.46463 36.1149 9.57677 31.9015 10.4354 28.8511C11.765 32.8978 13.5764 39.8211 13.5764 47.5451V63.9713C13.5764 64.5364 14.0329 64.9929 14.5981 64.9929C15.1633 64.9929 15.6197 64.5364 15.6197 63.9713V47.5451C15.6197 34.9303 11.1056 24.7065 10.9136 24.2754C10.7107 23.8298 10.2144 23.5906 9.73256 23.7102Z" fill="#2B2D2F"/>
<path d="M65.8801 38.1473C57.6489 32.2493 58.0184 25.0687 58.0401 24.7716C58.0764 24.2789 57.7539 23.8297 57.2721 23.7065C56.7903 23.5869 56.2939 23.8261 56.091 24.2789C55.899 24.7064 51.3849 34.9302 51.3849 47.5487V63.9748C51.3849 64.54 51.8414 64.9965 52.4066 64.9965C52.9717 64.9965 53.4282 64.54 53.4282 63.9748V47.5487C53.4282 39.8247 55.236 32.9014 56.5693 28.8546C57.4279 31.9051 59.54 36.1149 64.6954 39.8102C65.1519 40.1399 65.7895 40.0312 66.1192 39.5747C66.4416 39.1146 66.3365 38.477 65.8801 38.1473Z" fill="#2B2D2F"/>
<path d="M28.1372 21.7791C28.1372 18.7866 25.7026 16.3521 22.7101 16.3521C19.7176 16.3521 17.283 18.7866 17.283 21.7791C17.283 24.4238 19.185 26.6265 21.6884 27.1084V63.9784C21.6884 64.5436 22.1449 65.0001 22.7101 65.0001C23.2753 65.0001 23.7317 64.5436 23.7317 63.9784V27.1048C26.2388 26.6265 28.1372 24.4202 28.1372 21.7791ZM22.7101 25.1629C20.8443 25.1629 19.3227 23.6449 19.3227 21.7755C19.3227 19.9097 20.8407 18.3881 22.7101 18.3881C24.5795 18.3881 26.0975 19.9061 26.0975 21.7755C26.0975 23.6449 24.5759 25.1629 22.7101 25.1629Z" fill="#2B2D2F"/>
<path d="M44.2877 16.3521C41.2952 16.3521 38.8607 18.7866 38.8607 21.7791C38.8607 24.4238 40.7627 26.6265 43.2661 27.1084V63.9784C43.2661 64.5436 43.7226 65.0001 44.2877 65.0001C44.8529 65.0001 45.3094 64.5436 45.3094 63.9784V27.1048C47.8164 26.6265 49.7148 24.4202 49.7148 21.7755C49.7148 18.7866 47.2802 16.3521 44.2877 16.3521ZM44.2877 25.1629C42.4219 25.1629 40.9003 23.6449 40.9003 21.7755C40.9003 19.9097 42.4183 18.3881 44.2877 18.3881C46.1571 18.3881 47.6751 19.9061 47.6751 21.7755C47.6751 23.6449 46.1571 25.1629 44.2877 25.1629Z" fill="#2B2D2F"/>
</svg>
