<svg width="69" height="65" viewBox="0 0 69 65" fill="none" xmlns="http://www.w3.org/2000/svg">
<path d="M68.4619 25.0658C68.4076 24.869 64.3945 14.2579 62.6237 9.99374C63.5091 8.93534 64.0451 7.57502 64.0451 6.09258C64.0451 2.7342 61.3109 0 57.9525 0C54.5942 0 51.86 2.7342 51.86 6.09258C51.86 9.06085 53.9937 11.5372 56.8093 12.0732L59.0008 21.497C59.228 22.4774 59.6114 24.1159 59.1093 24.8588C59.0449 24.9538 58.8481 25.2422 58.1629 25.3439C53.6443 26.0156 51.0051 28.2817 50.0044 29.3265L42.2292 26.7653C44.6852 24.6112 46.2389 21.4563 46.2389 17.9419C46.2389 11.4694 40.974 6.20453 34.5015 6.20453C28.029 6.20453 22.7641 11.4694 22.7641 17.9419C22.7641 21.4563 24.3178 24.6146 26.7738 26.7653L18.9987 29.3265C17.9979 28.2851 15.3587 26.0156 10.8402 25.3439C10.1549 25.2422 9.95817 24.9538 9.89372 24.8588C9.38827 24.1159 9.7716 22.4774 10.0023 21.497L12.1903 12.0732C15.0025 11.5372 17.1397 9.06085 17.1397 6.09258C17.1397 2.7342 14.4089 0 11.0471 0C7.68533 0 4.95791 2.7342 4.95791 6.09258C4.95791 7.57502 5.4939 8.93873 6.37929 9.99374C4.60851 14.2579 0.592013 24.869 0.537736 25.0658C0.16119 26.4498 0.0458512 27.6507 2.02017 30.5206C4.1709 33.6517 15.4435 41.6168 17.5603 43.0959L21.3936 64.213C21.4784 64.6743 21.8787 65 22.3333 65C22.391 65 22.4487 64.9966 22.5063 64.983C23.0253 64.8881 23.3714 64.3928 23.2764 63.8704L19.3752 42.3665C19.3311 42.1189 19.1886 41.895 18.9783 41.7525C15.3011 39.1981 5.36499 32.0098 3.5976 29.4384C1.97268 27.0774 2.14569 26.443 2.38315 25.5678C2.44082 25.3507 5.60584 16.8496 7.90583 11.2998C8.59786 11.7204 9.38148 12.0054 10.2194 12.1207L8.1399 21.0594C7.82102 22.4265 7.33592 24.4959 8.3129 25.9308C8.798 26.6466 9.55449 27.0842 10.562 27.2334C15.5555 27.9764 17.9199 30.9785 17.9403 31.0057C18.1879 31.3314 18.6153 31.4636 19.0021 31.3381L28.7075 28.1392C30.4172 29.1162 32.3949 29.6759 34.5049 29.6759C36.6115 29.6759 38.5892 29.1162 40.3024 28.1392L50.0078 31.3381C50.3945 31.467 50.8219 31.3347 51.0695 31.0057C51.0933 30.9752 53.4068 27.9831 58.4478 27.2334C59.4519 27.0842 60.2084 26.6466 60.6969 25.9308C61.6739 24.4959 61.1888 22.4265 60.8699 21.0594L58.7904 12.1173C59.6283 12.002 60.4086 11.717 61.104 11.2964C63.4006 16.8462 66.5656 25.3473 66.6267 25.5644C66.8641 26.4396 67.0371 27.0706 65.4156 29.435C63.6482 32.0064 53.7122 39.1981 50.0349 41.7491C49.828 41.895 49.6855 42.1155 49.638 42.3631L45.7334 63.867C45.6385 64.386 45.9845 64.8847 46.5035 64.9796C46.5612 64.9898 46.6188 64.9966 46.6765 64.9966C47.1311 64.9966 47.5314 64.6743 47.6162 64.2096L51.4495 43.0925C53.5663 41.61 64.8389 33.6483 66.9896 30.5172C68.9538 27.6507 68.8384 26.4498 68.4619 25.0658ZM11.0471 1.91326C13.3539 1.91326 15.2264 3.78921 15.2264 6.09258C15.2264 8.39596 13.3505 10.2719 11.0471 10.2719C8.74033 10.2719 6.86778 8.39596 6.86778 6.09258C6.86778 3.78581 8.74373 1.91326 11.0471 1.91326ZM24.674 17.9385C24.674 12.521 29.0806 8.11101 34.5015 8.11101C39.919 8.11101 44.329 12.5176 44.329 17.9385C44.329 23.356 39.9224 27.766 34.5015 27.766C29.084 27.766 24.674 23.356 24.674 17.9385ZM53.7732 6.09258C53.7732 3.78921 55.6492 1.91326 57.9525 1.91326C60.2559 1.91326 62.1319 3.78921 62.1319 6.09258C62.1319 8.39596 60.2559 10.2719 57.9525 10.2719C55.6492 10.2719 53.7732 8.39596 53.7732 6.09258Z" fill="#2B2D2F"/>
<path d="M8.39382 42.7667C7.51521 42.7667 6.79944 43.4825 6.79944 44.3611C6.79944 45.2397 7.51521 45.9555 8.39382 45.9555C9.27243 45.9555 9.98821 45.2397 9.98821 44.3611C9.98481 43.4825 9.26904 42.7667 8.39382 42.7667Z" fill="#2B2D2F"/>
<path d="M8.39382 51.2917C7.51521 51.2917 6.79944 52.0075 6.79944 52.8861C6.79944 53.7647 7.51521 54.4805 8.39382 54.4805C9.27243 54.4805 9.98821 53.7647 9.98821 52.8861C9.98481 52.0041 9.26904 51.2917 8.39382 51.2917Z" fill="#2B2D2F"/>
<path d="M8.39382 59.8131C7.51521 59.8131 6.79944 60.5289 6.79944 61.4075C6.79944 62.2861 7.51521 63.0019 8.39382 63.0019C9.27243 63.0019 9.98821 62.2861 9.98821 61.4075C9.98481 60.5289 9.26904 59.8131 8.39382 59.8131Z" fill="#2B2D2F"/>
<path d="M60.6087 42.7667C59.7301 42.7667 59.0143 43.4825 59.0143 44.3611C59.0143 45.2397 59.7301 45.9555 60.6087 45.9555C61.4873 45.9555 62.203 45.2397 62.203 44.3611C62.203 43.4825 61.4873 42.7667 60.6087 42.7667Z" fill="#2B2D2F"/>
<path d="M60.6087 51.2917C59.7301 51.2917 59.0143 52.0075 59.0143 52.8861C59.0143 53.7647 59.7301 54.4805 60.6087 54.4805C61.4873 54.4805 62.203 53.7647 62.203 52.8861C62.203 52.0041 61.4873 51.2917 60.6087 51.2917Z" fill="#2B2D2F"/>
<path d="M60.6087 59.8131C59.7301 59.8131 59.0143 60.5289 59.0143 61.4075C59.0143 62.2861 59.7301 63.0019 60.6087 63.0019C61.4873 63.0019 62.203 62.2861 62.203 61.4075C62.203 60.5289 61.4873 59.8131 60.6087 59.8131Z" fill="#2B2D2F"/>
</svg>
