<svg width="57" height="57" viewBox="0 0 57 57" fill="none" xmlns="http://www.w3.org/2000/svg">
<path d="M56.1345 32.1326C56.1406 21.4186 51.3669 14.9425 47.3619 11.3967C43.8987 8.33168 40.4632 6.89255 39.122 6.41181C37.1072 2.60269 33.1022 0 28.5 0C23.8978 0 19.8927 2.60269 17.8779 6.41181C16.5398 6.89561 13.1012 8.33168 9.6381 11.3967C5.63301 14.9425 0.85936 21.4186 0.865484 32.1326C0.871608 40.1948 1.70447 44.9715 2.69349 47.8069C2.10865 48.7071 1.76571 49.7758 1.76571 50.9271C1.76571 54.0993 4.34697 56.6806 7.5192 56.6806C8.99814 56.6806 10.3424 56.1172 11.362 55.1955C13.8453 54.8005 19.4548 54.1146 28.5 54.1146C37.5451 54.1146 43.1547 54.8005 45.638 55.1955C46.6576 56.1141 48.0018 56.6806 49.4808 56.6806C52.653 56.6806 55.2342 54.0993 55.2342 50.9271C55.2342 49.7758 54.8913 48.7071 54.3065 47.8069C55.2985 44.9715 56.1314 40.1948 56.1345 32.1326ZM28.5 1.72696C34.1739 1.72696 38.7883 6.34139 38.7883 12.0153C38.7883 17.6891 34.1739 22.3036 28.5 22.3036C22.8261 22.3036 18.2117 17.6891 18.2117 12.0153C18.2117 6.34139 22.8292 1.72696 28.5 1.72696ZM10.7282 12.7379C13.0461 10.6741 15.3824 9.38807 16.9685 8.65626C16.6592 9.72183 16.4878 10.8456 16.4878 12.0091C16.4878 18.6322 21.8769 24.0213 28.5 24.0213C35.1231 24.0213 40.5122 18.6322 40.5122 12.0091C40.5122 10.8456 40.3438 9.71877 40.0314 8.65626C41.6176 9.38501 43.9539 10.6741 46.2718 12.7379C51.6762 17.5483 54.4136 24.0734 54.4075 32.1295C54.4044 39.365 53.7216 43.7283 52.9531 46.3525C51.9855 45.6145 50.7852 45.1736 49.4777 45.1736C49.049 45.1736 48.6356 45.2226 48.2345 45.3144C48.8286 39.9192 49.2113 28.155 41.9636 24.548C41.6665 24.401 41.3114 24.4347 41.0511 24.6399C37.5022 27.3957 34.6852 28.1948 28.5 28.2132C22.3117 28.1979 19.4947 27.3957 15.9458 24.6399C15.6855 24.4378 15.3273 24.401 15.0333 24.548C7.78559 28.155 8.1714 39.9192 8.76237 45.3144C8.36125 45.2256 7.94481 45.1736 7.5192 45.1736C6.21173 45.1736 5.01142 45.6176 4.04383 46.3525C3.27527 43.7283 2.59551 39.365 2.59245 32.1295C2.58632 24.0734 5.32375 17.5513 10.7282 12.7379ZM11.362 46.6587C11.1232 46.4443 10.8721 46.2483 10.5996 46.0769C10.0453 41.7258 9.18492 29.983 15.3395 26.3423C19.0047 29.0675 22.1892 29.9187 28.503 29.934C34.8138 29.9187 37.9952 29.0675 41.6604 26.3423C47.8089 29.98 46.9485 41.7258 46.3973 46.0769C46.1279 46.2483 45.8737 46.4443 45.638 46.6587C43.1547 47.0537 37.5451 47.7395 28.5 47.7395C19.4548 47.7395 13.8483 47.0537 11.362 46.6587ZM3.49267 50.9271C3.49267 48.7071 5.29925 46.9006 7.5192 46.9006C9.73914 46.9006 11.5457 48.7071 11.5457 50.9271C11.5457 53.147 9.73914 54.9536 7.5192 54.9536C5.29925 54.9536 3.49267 53.147 3.49267 50.9271ZM12.7797 53.2419C13.092 52.5316 13.2696 51.7508 13.2696 50.9271C13.2696 50.1034 13.092 49.3226 12.7797 48.6122C15.8019 49.0041 20.9491 49.4665 28.5 49.4665C36.0478 49.4665 41.1981 49.0072 44.2172 48.6153C43.9049 49.3257 43.7273 50.1065 43.7273 50.9301C43.7273 51.7538 43.9049 52.5377 44.2172 53.245C41.195 52.8531 36.0478 52.3907 28.4969 52.3907C20.9522 52.3876 15.8019 52.85 12.7797 53.2419ZM49.4808 54.9536C47.2608 54.9536 45.4542 53.147 45.4542 50.9271C45.4542 48.7071 47.2608 46.9006 49.4808 46.9006C51.7007 46.9006 53.5073 48.7071 53.5073 50.9271C53.5073 53.147 51.7007 54.9536 49.4808 54.9536Z" fill="#2B2D2F"/>
</svg>
